<svg xmlns:dc="http://purl.org/dc/elements/1.1/" xmlns:cc="http://creativecommons.org/ns#" xmlns:rdf="http://www.w3.org/1999/02/22-rdf-syntax-ns#" xmlns:svg="http://www.w3.org/2000/svg" xmlns="http://www.w3.org/2000/svg" xmlns:sodipodi="http://sodipodi.sourceforge.net/DTD/sodipodi-0.dtd" xmlns:inkscape="http://www.inkscape.org/namespaces/inkscape" version="1.1" x="0px" y="0px" viewBox="0 0 100 125"><g transform="translate(0,-952.36218)"><g transform="translate(-1145,1772)" style="" fill="#000000"><path d="m 1180.154,-789.71678 c -3.8082,2.19865 -5.1268,7.11989 -2.9281,10.92816 l 13.7657,23.84285 c -2.4112,-1.69923 -5.783,-3.09402 -8.5532,-2.31471 -3.8008,1.00496 -6.308,5.95722 -5.4615,9.54016 0.5159,1.97173 1.9384,3.73297 4.2265,5.57053 10.7458,8.22146 22.2825,15.41028 33.5759,19.40565 0.5361,0.18442 1.1505,0.12658 1.6427,-0.1546 l 23.3824,-13.49985 c 0.3666,-0.21622 0.6602,-0.55336 0.8252,-0.94552 1.4268,-3.28623 1.6198,-7.59229 1.1235,-12.3039 -0.4961,-4.71167 -1.73,-9.79729 -3.5256,-14.41896 -1.7955,-4.62173 -4.0925,-8.59414 -7.0519,-11.58922 -2.8562,-2.89071 -6.8941,-4.33741 -10.7177,-2.68887 -0.8462,0.48393 -1.695,1.07237 -2.3492,1.68099 -1.0575,-0.80571 -2.2032,-1.35211 -3.2933,-1.45442 -1.8256,-0.17133 -3.3108,0.30028 -4.3681,0.93418 -1.015,0.60886 -1.7341,1.52161 -2.225,2.58364 -0.701,-0.35351 -1.4258,-0.724 -2.1199,-0.79681 -1.8224,-0.19114 -3.3374,0.33916 -4.4222,0.96546 -0.8973,0.51805 -1.622,1.26827 -2.2543,2.09535 l -8.3438,-14.45189 c -2.75,-4.59318 -7.7346,-4.78384 -10.9281,-2.92822 z m 2.0001,3.46409 c 1.949,-1.1253 4.3387,-0.48492 5.4639,1.46418 l 10.5001,18.18661 c 0.4419,0.79156 1.4673,1.20339 2.3339,0.9372 0.8666,-0.26614 1.484,-1.18251 1.4053,-2.08566 -0.077,-1.01637 0.8865,-2.67686 1.8228,-3.21749 0.4205,-0.24271 1.3011,-0.51828 2.0176,-0.44318 0.7165,0.0751 1.3524,0.27998 2.0806,1.5412 0.4445,0.77 1.4466,1.16686 2.299,0.91401 0.8524,-0.25284 1.4742,-1.13184 1.4287,-2.01977 -0.1091,-1.81517 0.1367,-2.26075 0.9954,-2.77584 0.2374,-0.14282 1.1706,-0.4681 1.9362,-0.3962 0.7657,0.0718 1.4257,0.28163 2.1348,1.5099 0.3808,0.67957 1.1919,1.08914 1.9659,1.00123 0.774,-0.088 1.469,-0.67014 1.6912,-1.4167 0.4699,-0.70295 1.0573,-1.17307 1.9036,-1.64031 2.2167,-0.92955 4.0358,-0.25434 6.2607,1.90634 2.2453,2.18051 4.4248,5.89187 6.0842,10.16323 1.6595,4.27135 2.8417,9.08019 3.2963,13.3967 0.4263,4.04828 0.1235,7.57682 -0.6735,9.77077 l -21.8398,12.60919 c -10.2204,-3.66193 -22.3843,-11.3232 -31.5289,-18.42244 -1.9585,-1.5729 -2.7017,-2.6963 -2.8953,-3.45238 -0.3253,-2.04585 0.9247,-4.02853 2.6034,-4.67839 2.2419,-0.36966 3.4075,0.59571 5.0069,1.54755 l 7.4214,4.91674 c 0.7463,0.48331 1.8184,0.38438 2.4636,-0.22744 0.6452,-0.61175 0.8008,-1.67705 0.3579,-2.44799 l -18,-31.17702 c -1.1253,-1.94907 -0.485,-4.33878 1.464,-5.46408 z" style="text-indent:0;text-transform:none;direction:ltr;block-progression:tb;baseline-shift:baseline;color:#000000;enable-background:accumulate;" fill="#000000" fill-opacity="1" stroke="none" marker="none" visibility="visible" display="inline" overflow="visible"/><path style="text-indent:0;text-transform:none;direction:ltr;block-progression:tb;baseline-shift:baseline;color:#000000;enable-background:accumulate;" d="m 1148.0016,-793.38911 0,12.72672 c -0.025,0.59206 0.255,1.02139 0.5965,1.3919 0.3991,0.37511 0.7994,0.59187 1.3919,0.59643 l 12.7267,-10e-4 c 1.0902,0.0513 2.0268,-0.92848 2.0328,-1.98868 0.01,-1.06037 -0.9504,-2.02544 -2.0104,-2.01048 l -7.91,7.7e-4 c 9.0451,-9.04511 18.0902,-18.09017 27.1353,-27.13525 l -8e-4,7.90996 c -0.015,1.06015 0.95,2.01663 2.0104,2.01042 1.0601,-0.006 2.0152,-0.97297 1.9888,-2.03284 l 0,-12.72667 c 0,-0.59249 -0.2215,-0.99283 -0.5965,-1.39189 -0.3706,-0.34097 -0.7998,-0.62196 -1.3919,-0.59645 l -12.7266,10e-4 c -1.0875,-0.032 -2.027,0.92858 -2.0329,1.98873 -0.01,1.06022 0.9504,2.02536 2.0105,2.01043 l 7.9099,-7.2e-4 c -9.045,9.04509 -18.0901,18.09012 -27.1353,27.13524 l 8e-4,-7.90999 c 0.015,-1.06005 -0.9503,-2.01641 -2.0105,-2.01046 -1.1194,0.007 -1.9929,0.9574 -1.9887,2.03283 z" fill="#000000" fill-opacity="1" stroke="none" marker="none" visibility="visible" display="inline" overflow="visible"/></g></g><text x="0" y="115" fill="#000000" font-size="5px" font-weight="bold" font-family="'Helvetica Neue', Helvetica, Arial-Unicode, Arial, Sans-serif">Created by iconsphere</text><text x="0" y="120" fill="#000000" font-size="5px" font-weight="bold" font-family="'Helvetica Neue', Helvetica, Arial-Unicode, Arial, Sans-serif">from the Noun Project</text></svg>